<?xml version="1.0" encoding="iso-8859-1"?>
<!-- Generator: Adobe Illustrator 16.0.0, SVG Export Plug-In . SVG Version: 6.00 Build 0)  -->
<!DOCTYPE svg PUBLIC "-//W3C//DTD SVG 1.1//EN" "http://www.w3.org/Graphics/SVG/1.1/DTD/svg11.dtd">
<svg version="1.1" id="Capa_1" xmlns="http://www.w3.org/2000/svg" xmlns:xlink="http://www.w3.org/1999/xlink" x="0px" y="0px"
	 width="32.75px" height="32.75px" viewBox="0 0 32.75 32.75" style="enable-background:new 0 0 32.75 32.75;" xml:space="preserve"
	>
<g>
	<g>
		<path d="M29.375,1.25h-1.123c0.029-0.093,0.059-0.186,0.059-0.289c0-0.53-0.432-0.961-0.963-0.961s-0.961,0.431-0.961,0.961
			c0,0.104,0.028,0.196,0.059,0.289h-3.68c0.029-0.093,0.059-0.186,0.059-0.289c0-0.53-0.432-0.961-0.963-0.961
			C21.332,0,20.9,0.431,20.9,0.961c0,0.104,0.029,0.196,0.06,0.289h-3.681c0.029-0.093,0.058-0.186,0.058-0.289
			c0-0.53-0.43-0.961-0.961-0.961c-0.531,0-0.961,0.431-0.961,0.961c0,0.104,0.028,0.196,0.058,0.289h-3.681
			c0.029-0.093,0.059-0.186,0.059-0.289C11.851,0.431,11.42,0,10.89,0c-0.531,0-0.962,0.431-0.962,0.961
			c0,0.104,0.028,0.196,0.058,0.289h-3.68c0.03-0.093,0.059-0.186,0.059-0.289C6.365,0.431,5.935,0,5.404,0
			C4.873,0,4.442,0.431,4.442,0.961c0,0.104,0.028,0.196,0.058,0.289H3.375c-1.518,0-2.75,1.233-2.75,2.75v26
			c0,1.518,1.232,2.75,2.75,2.75H26.27l5.855-5.855V4C32.125,2.483,30.893,1.25,29.375,1.25z M30.625,26.273l-0.311,0.311h-2.355
			c-1.102,0-2,0.898-2,2v2.355l-0.311,0.311H3.375c-0.689,0-1.25-0.561-1.25-1.25V9h28.5V26.273z M30.625,7.208c0,0.55-0.45,1-1,1
			h-26.5c-0.55,0-1-0.45-1-1v-4c0-0.55,0.45-1,1-1h26.5c0.55,0,1,0.45,1,1V7.208z"/>
		<path d="M12.363,5.567c0,0.092-0.004,0.177-0.009,0.256c-0.005,0.079-0.019,0.146-0.038,0.203
			c-0.021,0.058-0.05,0.103-0.088,0.135c-0.039,0.033-0.092,0.05-0.157,0.05c-0.073,0-0.132-0.016-0.173-0.047
			c-0.043-0.031-0.072-0.072-0.092-0.124c-0.018-0.051-0.029-0.108-0.032-0.173c-0.004-0.064-0.006-0.129-0.006-0.195v-0.17H10.91
			v0.241c0,0.345,0.092,0.611,0.275,0.801c0.184,0.188,0.482,0.283,0.896,0.283c0.228,0,0.418-0.031,0.572-0.094
			c0.154-0.063,0.277-0.149,0.371-0.261c0.094-0.112,0.16-0.245,0.201-0.399c0.04-0.153,0.061-0.322,0.061-0.506V2.823h-0.924
			L12.363,5.567L12.363,5.567z"/>
		<path d="M15.289,5.722c0,0.146-0.032,0.254-0.097,0.321c-0.063,0.068-0.138,0.102-0.223,0.102c-0.085,0-0.148-0.029-0.192-0.09
			s-0.066-0.145-0.066-0.251V3.775H13.82v2.228c0,0.286,0.066,0.495,0.197,0.627c0.133,0.132,0.325,0.198,0.578,0.198
			c0.165,0,0.311-0.039,0.435-0.115c0.124-0.077,0.218-0.182,0.28-0.313h0.012v0.352h0.857V3.776h-0.891L15.289,5.722L15.289,5.722z
			"/>
		<path d="M18.259,3.697c-0.165,0-0.31,0.039-0.435,0.116c-0.125,0.076-0.219,0.181-0.28,0.313h-0.011V3.773h-0.858v2.976h0.892
			V4.802c0-0.146,0.031-0.254,0.097-0.321c0.063-0.068,0.139-0.102,0.224-0.102c0.084,0,0.147,0.03,0.191,0.091
			s0.064,0.145,0.064,0.25v2.029h0.893V4.521c0-0.286-0.064-0.495-0.198-0.627C18.704,3.764,18.512,3.697,18.259,3.697z"/>
		<path d="M21.822,5.408c0-0.253-0.01-0.484-0.029-0.693c-0.021-0.209-0.07-0.39-0.148-0.542c-0.08-0.151-0.196-0.27-0.354-0.352
			c-0.158-0.083-0.374-0.124-0.647-0.124c-0.242,0-0.441,0.037-0.599,0.11c-0.155,0.073-0.278,0.175-0.371,0.305
			c-0.092,0.131-0.153,0.284-0.188,0.463c-0.035,0.178-0.053,0.371-0.053,0.58c0,0.22,0.01,0.431,0.03,0.632
			c0.021,0.202,0.071,0.38,0.153,0.534c0.083,0.153,0.203,0.276,0.363,0.368c0.158,0.092,0.379,0.138,0.662,0.138
			c0.373,0,0.658-0.089,0.853-0.267c0.194-0.178,0.296-0.454,0.303-0.828h-0.823c-0.013,0.188-0.039,0.324-0.084,0.412
			c-0.043,0.089-0.123,0.133-0.242,0.133c-0.127,0-0.213-0.058-0.258-0.171c-0.043-0.113-0.065-0.286-0.065-0.517V5.407
			L21.822,5.408L21.822,5.408z M20.382,4.418c0.04-0.113,0.134-0.171,0.28-0.171c0.125,0,0.207,0.056,0.245,0.165
			c0.038,0.11,0.058,0.27,0.058,0.479H20.32C20.32,4.689,20.342,4.531,20.382,4.418z"/>
		<path d="M9.915,25.666h3.36v-14.16h-2.36c-0.04,0.227-0.116,0.47-0.229,0.73c-0.113,0.26-0.291,0.5-0.53,0.72
			c-0.24,0.22-0.563,0.403-0.97,0.55c-0.407,0.147-0.931,0.22-1.57,0.22h-0.42v2.12h2.72L9.915,25.666L9.915,25.666z"/>
		<path d="M17.686,24.086c0.326,0.6,0.799,1.061,1.42,1.38c0.619,0.32,1.449,0.479,2.49,0.479c0.934,0,1.699-0.137,2.299-0.409
			c0.602-0.272,1.074-0.644,1.42-1.11c0.349-0.467,0.588-1.013,0.722-1.64c0.133-0.627,0.198-1.293,0.198-2
			c0-1.587-0.297-2.718-0.889-3.39c-0.594-0.674-1.431-1.012-2.511-1.012c-0.601,0-1.112,0.102-1.54,0.301
			c-0.427,0.199-0.754,0.514-0.98,0.939h-0.039c0-0.773,0.02-1.42,0.06-1.94s0.116-0.93,0.229-1.229
			c0.112-0.299,0.261-0.513,0.439-0.64c0.182-0.127,0.41-0.19,0.689-0.19c0.373,0,0.646,0.146,0.82,0.44
			c0.08,0.146,0.133,0.31,0.159,0.489c0.026,0.181,0.04,0.37,0.04,0.57h3.24c-0.027-1.28-0.403-2.203-1.13-2.77
			c-0.728-0.567-1.724-0.851-2.99-0.851c-1.147,0-2.047,0.17-2.7,0.51c-0.652,0.341-1.146,0.837-1.48,1.49
			c-0.332,0.653-0.539,1.447-0.618,2.38c-0.08,0.935-0.12,1.987-0.12,3.16c0,1.067,0.046,2.022,0.141,2.87
			C17.148,22.761,17.357,23.486,17.686,24.086z M20.445,20.236c0.033-0.273,0.093-0.514,0.18-0.721
			c0.086-0.207,0.21-0.367,0.37-0.479c0.159-0.113,0.366-0.17,0.62-0.17c0.533,0,0.877,0.196,1.029,0.59
			c0.153,0.394,0.229,1.03,0.229,1.91c0,0.772-0.087,1.377-0.261,1.81c-0.174,0.434-0.5,0.65-0.979,0.65
			c-0.493,0-0.823-0.24-0.989-0.721c-0.166-0.479-0.25-1.141-0.25-1.979C20.395,20.807,20.412,20.51,20.445,20.236z"/>
	</g>
</g>
<g>
</g>
<g>
</g>
<g>
</g>
<g>
</g>
<g>
</g>
<g>
</g>
<g>
</g>
<g>
</g>
<g>
</g>
<g>
</g>
<g>
</g>
<g>
</g>
<g>
</g>
<g>
</g>
<g>
</g>
</svg>
