<?xml version="1.0" encoding="iso-8859-1"?>
<!-- Generator: Adobe Illustrator 16.0.0, SVG Export Plug-In . SVG Version: 6.00 Build 0)  -->
<!DOCTYPE svg PUBLIC "-//W3C//DTD SVG 1.1//EN" "http://www.w3.org/Graphics/SVG/1.1/DTD/svg11.dtd">
<svg version="1.1" id="Capa_1" xmlns="http://www.w3.org/2000/svg" xmlns:xlink="http://www.w3.org/1999/xlink" x="0px" y="0px"
	 width="32.75px" height="32.75px" viewBox="0 0 32.75 32.75" style="enable-background:new 0 0 32.75 32.75;" xml:space="preserve"
	>
	<g>
		<path d="M29.375,1.25h-1.123c0.029-0.093,0.059-0.186,0.059-0.289c0-0.53-0.432-0.961-0.963-0.961s-0.961,0.431-0.961,0.961
			c0,0.104,0.028,0.196,0.059,0.289h-3.68c0.029-0.093,0.059-0.186,0.059-0.289c0-0.53-0.432-0.961-0.963-0.961
			C21.332,0,20.9,0.431,20.9,0.961c0,0.104,0.029,0.196,0.06,0.289h-3.681c0.029-0.093,0.058-0.186,0.058-0.289
			c0-0.53-0.43-0.961-0.961-0.961c-0.531,0-0.961,0.431-0.961,0.961c0,0.104,0.028,0.196,0.058,0.289h-3.681
			c0.029-0.093,0.059-0.186,0.059-0.289C11.851,0.431,11.42,0,10.89,0c-0.531,0-0.962,0.431-0.962,0.961
			c0,0.104,0.028,0.196,0.058,0.289h-3.68c0.03-0.093,0.059-0.186,0.059-0.289C6.365,0.431,5.935,0,5.404,0
			C4.873,0,4.442,0.431,4.442,0.961c0,0.104,0.028,0.196,0.058,0.289H3.375c-1.518,0-2.75,1.233-2.75,2.75v26
			c0,1.518,1.232,2.75,2.75,2.75H26.27l5.855-5.855V4C32.125,2.483,30.893,1.25,29.375,1.25z M30.625,26.273l-0.311,0.311h-2.355
			c-1.102,0-2,0.898-2,2v2.355l-0.311,0.311H3.375c-0.689,0-1.25-0.561-1.25-1.25V9h28.5V26.273z M30.625,7.208c0,0.55-0.45,1-1,1
			h-26.5c-0.55,0-1-0.45-1-1v-4c0-0.55,0.45-1,1-1h26.5c0.55,0,1,0.45,1,1V7.208z"/>
		<path d="M12.363,5.567c0,0.092-0.004,0.177-0.009,0.256c-0.005,0.079-0.019,0.146-0.038,0.203
			c-0.021,0.058-0.05,0.103-0.088,0.135c-0.039,0.033-0.092,0.05-0.157,0.05c-0.073,0-0.132-0.016-0.173-0.047
			c-0.043-0.031-0.072-0.072-0.092-0.124c-0.018-0.051-0.029-0.108-0.032-0.173c-0.004-0.064-0.006-0.129-0.006-0.195v-0.17H10.91
			v0.241c0,0.345,0.092,0.611,0.275,0.801c0.184,0.188,0.482,0.283,0.896,0.283c0.228,0,0.418-0.031,0.572-0.094
			c0.154-0.063,0.277-0.149,0.371-0.261c0.094-0.112,0.16-0.245,0.201-0.399c0.04-0.153,0.061-0.322,0.061-0.506V2.823h-0.924
			L12.363,5.567L12.363,5.567z"/>
		<path d="M15.289,5.722c0,0.146-0.032,0.254-0.097,0.321c-0.063,0.068-0.138,0.102-0.223,0.102c-0.085,0-0.148-0.029-0.192-0.09
			s-0.066-0.145-0.066-0.251V3.775H13.82v2.228c0,0.286,0.066,0.495,0.197,0.627c0.133,0.132,0.325,0.198,0.578,0.198
			c0.165,0,0.311-0.039,0.435-0.115c0.124-0.077,0.218-0.182,0.28-0.313h0.012v0.352h0.857V3.776h-0.891L15.289,5.722L15.289,5.722z
			"/>
		<path d="M18.259,3.697c-0.165,0-0.31,0.039-0.435,0.116c-0.125,0.076-0.219,0.181-0.28,0.313h-0.011V3.773h-0.858v2.976h0.892
			V4.802c0-0.146,0.031-0.254,0.097-0.321c0.063-0.068,0.139-0.102,0.224-0.102c0.084,0,0.147,0.03,0.191,0.091
			s0.064,0.145,0.064,0.25v2.029h0.893V4.521c0-0.286-0.064-0.495-0.198-0.627C18.704,3.764,18.512,3.697,18.259,3.697z"/>
		<path d="M21.822,5.408c0-0.253-0.01-0.484-0.029-0.693c-0.021-0.209-0.07-0.39-0.148-0.542c-0.08-0.151-0.196-0.27-0.354-0.352
			c-0.158-0.083-0.374-0.124-0.647-0.124c-0.242,0-0.441,0.037-0.599,0.11c-0.155,0.073-0.278,0.175-0.371,0.305
			c-0.092,0.131-0.153,0.284-0.188,0.463c-0.035,0.178-0.053,0.371-0.053,0.58c0,0.22,0.01,0.431,0.03,0.632
			c0.021,0.202,0.071,0.38,0.153,0.534c0.083,0.153,0.203,0.276,0.363,0.368c0.158,0.092,0.379,0.138,0.662,0.138
			c0.373,0,0.658-0.089,0.853-0.267c0.194-0.178,0.296-0.454,0.303-0.828h-0.823c-0.013,0.188-0.039,0.324-0.084,0.412
			c-0.043,0.089-0.123,0.133-0.242,0.133c-0.127,0-0.213-0.058-0.258-0.171c-0.043-0.113-0.065-0.286-0.065-0.517V5.407
			L21.822,5.408L21.822,5.408z M20.382,4.418c0.04-0.113,0.134-0.171,0.28-0.171c0.125,0,0.207,0.056,0.245,0.165
			c0.038,0.11,0.058,0.27,0.058,0.479H20.32C20.32,4.689,20.342,4.531,20.382,4.418z"/>
	</g>
</svg>
